<?xml version="1.0" encoding="UTF-8" standalone="no"?>
<!-- Created with Inkscape (http://www.inkscape.org/) -->

<svg
   width="50.490002mm"
   height="50.490002mm"
   viewBox="0 0 50.490002 50.490002"
   version="1.1"
   id="svg1"
   inkscape:export-filename="ozemPDF.png"
   inkscape:export-xdpi="96"
   inkscape:export-ydpi="96"
   xmlns:inkscape="http://www.inkscape.org/namespaces/inkscape"
   xmlns:sodipodi="http://sodipodi.sourceforge.net/DTD/sodipodi-0.dtd"
   xmlns="http://www.w3.org/2000/svg"
   xmlns:svg="http://www.w3.org/2000/svg">
  <sodipodi:namedview
     id="namedview1"
     pagecolor="#ffffff"
     bordercolor="#000000"
     borderopacity="0.25"
     inkscape:showpageshadow="2"
     inkscape:pageopacity="0.0"
     inkscape:pagecheckerboard="0"
     inkscape:deskcolor="#d1d1d1"
     inkscape:document-units="mm">
    <inkscape:page
       x="0"
       y="0"
       width="50.490002"
       height="50.490002"
       id="page2"
       margin="0"
       bleed="0" />
  </sodipodi:namedview>
  <defs
     id="defs1" />
  <g
     inkscape:label="Layer 1"
     inkscape:groupmode="layer"
     id="layer1"
     transform="translate(-68.681252,-107.10562)">
    <g
       transform="matrix(0.15262198,0,0,0.13582228,68.266354,106.08692)"
       id="g3">
      <path
         d="m 268.36245,90.820636 c -5.35206,31.601314 -9.03539,63.268894 -9.18178,98.390614 -9.1e-4,1.47482 0.005,2.94956 0.0166,4.42442 0.25281,77.53323 14.15235,111.70522 22.43028,172.02321 -75.44968,6.09998 -153.89806,6.0925 -229.041402,0.017 9.035683,-60.30276 25.052133,-94.08055 25.500146,-172.02862 0.0013,-1.47967 -0.0045,-2.95895 -0.01754,-4.43803 C 77.726341,124.34712 59.587839,63.780023 52.552747,15.251977 102.98807,11.306931 153.92381,23.573776 204.35913,19.62873 c 26.61323,16.819169 48.00735,38.151302 64.00332,71.191906 z"
         fill="#ffffff"
         id="path1"
         style="fill:#ffffff;fill-opacity:1" />
      <path
         d="m 43.65186,8.9336606 c 0,1e-7 4.8e-4,0.00347 4.8e-4,0.00347 0,0 -0.0059,6.724e-4 -0.0059,6.724e-4 7.12124,51.405517 29.234213,113.568237 29.62694,180.334077 0.01293,1.45204 0.01797,2.90427 0.01505,4.35691 -0.406337,66.04298 -22.365912,127.73379 -29.636717,178.30483 82.117317,9.74534 164.404867,9.72653 246.846027,0.004 0,0 -4.8e-4,-0.004 -4.8e-4,-0.004 0,0 0.006,-7.1e-4 0.006,-7.1e-4 -6.73883,-50.71247 -26.10935,-112.52015 -26.36456,-178.31733 -0.0117,-1.44726 -0.0162,-2.89443 -0.0135,-4.34171 0.17462,-35.84086 4.59282,-68.02422 10.91824,-100.508972 C 259.12278,52.543177 236.31124,30.400087 207.76015,13.854308 153.17866,19.116411 98.218767,2.7043493 43.651861,8.933666 c 0,0 -10e-7,-5.4e-6 -10e-7,-5.4e-6 z M 61.325955,21.781033 c 44.348185,-2.165326 90.911205,6.767005 136.749775,3.985361 0,0 0.004,0.0026 0.004,0.0026 -0.42093,18.525846 -1.2929,41.635302 -1.99037,68.45874 21.9829,-0.205447 46.60593,-0.659187 65.09603,2.148792 -4.25934,29.721054 -7.09536,59.804054 -7.2126,92.783284 5.9e-4,1.497 0.007,2.99397 0.0191,4.49107 0.19639,72.23009 11.3789,110.50434 18.89701,165.48709 -68.99119,3.48834 -142.81241,3.47379 -211.506755,0.0314 8.303749,-55.00307 21.378699,-92.90104 21.768702,-165.50822 -1.2e-5,-1.50136 -0.0066,-3.00234 -0.01956,-4.50312 C 82.782405,115.64867 69.515894,77.638343 61.325943,21.780951 Z"
         id="path2" />
      <path
         d="m 68.615504,129.95292 c -4.441802,11.714 -7.982035,23.11476 -11.19902,34.20566 0.965255,8.46708 1.501809,16.92615 1.576535,25.44248 0.01145,1.30546 0.01204,2.61108 0.0017,3.91712 -0.276355,34.93445 -8.279452,66.28114 -19.538479,99.54112 24.701261,16.06941 230.72784,16.5511 257.34183,-0.27739 -10.30574,-33.32996 -17.53234,-64.54751 -17.77407,-99.2828 -0.009,-1.29821 -0.008,-2.59648 0.003,-3.89503 0.0712,-8.47123 0.56154,-16.88762 1.44226,-25.31691 -3.55785,-11.0736 -7.44056,-22.44715 -12.25195,-34.1754 -1.33178,10.2315 -2.37826,20.55911 -3.08061,31.08047 -23.99764,-3.09032 -170.646929,-3.02042 -193.023182,-0.0881 -0.800161,-10.55066 -1.989418,-20.90212 -3.499059,-31.15088 0,0 0.0013,-2.9e-4 0.0013,-2.9e-4 z"
         fill="#ed1c24"
         id="path3" />
      <path
         d="m 76.304023,195.45459 h 28.905007 q 12.89191,0 19.76759,6.51123 6.92093,6.45996 6.92093,18.45703 0,12.04834 -6.92093,18.55957 -6.87568,6.45996 -19.76759,6.45996 H 93.719406 V 272 H 76.304023 Z m 17.415383,14.3042 v 21.37939 h 9.635004 q 5.0663,0 7.82562,-2.76855 2.7593,-2.81983 2.7593,-7.94678 0,-5.12695 -2.7593,-7.89551 -2.75932,-2.76855 -7.82562,-2.76855 z m 67.897384,0.61523 v 46.70655 h 6.24239 q 10.6754,0 16.28451,-5.99854 5.65435,-5.99853 5.65435,-17.43164 0,-11.38184 -5.60912,-17.3291 -5.60912,-5.94727 -16.32974,-5.94727 z m -17.4154,-14.91943 h 18.36532 q 15.37982,0 22.88878,2.51221 7.55421,2.46093 12.93715,8.4082 4.74965,5.17822 7.05662,11.9458 2.30697,6.76758 2.30697,15.32959 0,8.66455 -2.30697,15.4834 -2.30697,6.76758 -7.05662,11.9458 -5.42818,5.94727 -13.02762,8.45947 Q 177.76558,272 162.56671,272 h -18.36532 z m 76.89911,0 h 46.9989 v 14.91943 h -29.58353 v 14.25293 h 27.81938 v 14.91944 H 238.51587 V 272 H 221.1005 Z"
         id="text3"
         style="font-weight:bold;font-size:105px;font-family:'DejaVu Sans';white-space:pre;fill:#ffffff;stroke-width:0.939306"
         aria-label="PDF" />
    </g>
  </g>
</svg>
